<svg xmlns="http://www.w3.org/2000/svg" width="15.986" height="27.005" viewBox="0 0 15.986 27.005">
  <path id="Path_55" data-name="Path 55" d="M28.569,59.5l-5.736-5.736-.156-.156-.938-.938-.375-.375a.7.7,0,0,0-.453-.188.667.667,0,0,0-.422.156l-.078.078-2.2,2.2L13.253,59.5a1.137,1.137,0,0,0-.016,1.61,1.132,1.132,0,0,0,1.625,0L19.77,56.2v21.77a1.141,1.141,0,0,0,2.282,0V56.2l1.563,1.563,3.329,3.344a1.141,1.141,0,0,0,1.625,0A1.174,1.174,0,0,0,28.9,60.3,1.111,1.111,0,0,0,28.569,59.5Z" transform="translate(28.897 79.115) rotate(180)" fill="#00a6c1"/>
</svg>
