<svg id="Group_3" data-name="Group 3" xmlns="http://www.w3.org/2000/svg" width="121.857" height="43.516" viewBox="0 0 121.857 43.516">
  <g id="Group_1" data-name="Group 1" transform="translate(4.035 34.509)">
    <path id="Path_1" data-name="Path 1" d="M29.411,54.732s.222-1.029.558-2.48c.315-1.356.658-2.521.658-2.521h.778s.336,1.165.649,2.521c.336,1.451.566,2.48.566,2.48h-.829s-.071-.366-.178-.9h-1.2c-.115.534-.18.9-.18.9Zm2.065-1.621c-.241-1.321-.463-2.243-.463-2.243s-.222.922-.466,2.243Z" transform="translate(-29.411 -49.687)"/>
    <path id="Path_2" data-name="Path 2" d="M33.858,54.753H33.1V49.789a3.84,3.84,0,0,1,.714-.073,1.867,1.867,0,0,1,2.107,1.821,1.765,1.765,0,0,1-1.936,1.773h-.127Zm.149-4.279a.539.539,0,0,0-.149.015V52.6H33.9c.836,0,1.251-.429,1.251-1.1A1.073,1.073,0,0,0,34.007,50.474Z" transform="translate(-24.106 -49.709)"/>
    <path id="Path_3" data-name="Path 3" d="M36.367,54.732s.219-1.029.556-2.48c.315-1.356.658-2.521.658-2.521h.778s.336,1.165.651,2.521c.334,1.451.563,2.48.563,2.48h-.829s-.071-.366-.178-.9h-1.2c-.115.534-.18.9-.18.9ZM38.43,53.11c-.241-1.321-.463-2.243-.463-2.243s-.222.922-.466,2.243Z" transform="translate(-19.407 -49.687)"/>
    <path id="Path_4" data-name="Path 4" d="M40.813,54.753h-.758V49.789a3.644,3.644,0,0,1,.744-.073,1.869,1.869,0,0,1,2.077,1.821A1.747,1.747,0,0,1,42.105,53l.785,1.751h-.87l-.614-1.492a1.991,1.991,0,0,1-.592.078Zm.149-4.272a1.012,1.012,0,0,0-.149.007V52.6h.041c.836,0,1.258-.429,1.258-1.1A1.074,1.074,0,0,0,40.962,50.482Z" transform="translate(-14.104 -49.709)"/>
    <path id="Path_5" data-name="Path 5" d="M46.258,49.731v.751H45.229v4.25h-.77v-4.25H43.43v-.751Z" transform="translate(-9.25 -49.687)"/>
    <path id="Path_6" data-name="Path 6" d="M46.934,49.731h.685l1.051,2.487,1.051-2.487h.685v5H49.67V51.667l-1,2.243-1-2.243v3.065h-.736Z" transform="translate(-4.211 -49.687)"/>
    <path id="Path_7" data-name="Path 7" d="M53.318,49.731v.751h-1.7v1.556h1.6V52.8h-1.6v1.185h1.7v.751H50.863v-5Z" transform="translate(1.44 -49.687)"/>
    <path id="Path_8" data-name="Path 8" d="M57.307,54.732H56.6L55.059,51.5v3.228h-.751v-5h.714l1.536,3.294V49.731h.749Z" transform="translate(6.394 -49.687)"/>
    <path id="Path_9" data-name="Path 9" d="M60.725,49.731v.751H59.7v4.25h-.77v-4.25H57.9v-.751Z" transform="translate(11.555 -49.687)"/>
    <path id="Path_10" data-name="Path 10" d="M63.3,50.822a.709.709,0,0,0-.563-.358.535.535,0,0,0-.558.529c0,.278.151.478.673.836.822.571,1.122.992,1.122,1.621a1.389,1.389,0,0,1-1.395,1.363,1.656,1.656,0,0,1-1.321-.67L61.9,53.6a.766.766,0,0,0,.67.473.609.609,0,0,0,.6-.622c0-.28-.193-.551-.749-.958-.744-.529-1.022-.956-1.022-1.477a1.308,1.308,0,0,1,1.329-1.3,1.479,1.479,0,0,1,1.185.614Z" transform="translate(16.383 -49.713)"/>
  </g>
  <g id="Group_2" data-name="Group 2" transform="translate(0)">
    <path id="Path_11" data-name="Path 11" d="M51.5,58.229c-.388.517-1.421.97-3.072,1.39a15.488,15.488,0,0,1-3.494.551c-1.846,0-4.854-.778-8.963-2.328-4.108-1.521-6.858-2.914-8.219-4.111v-.936a1.632,1.632,0,0,0,.907-.453,38.55,38.55,0,0,0,7.926,4.011,24.966,24.966,0,0,0,8.541,1.943c2.2,0,3.818-.453,4.788-1.424s1.553-2.655,1.78-5.081c.163-1.877.258-3.881.258-6.049,0-.583-.032-1.877-.1-3.85-.066-2.007-.1-3.27-.1-3.818a1.647,1.647,0,0,1,.517-1.134.9.9,0,0,1,.9.712c0,.066.066.907.2,2.492q.486,5.969.485,7.375C53.866,52.631,53.091,56.19,51.5,58.229Z" transform="translate(-27.756 -33.574)"/>
    <path id="Path_12" data-name="Path 12" d="M41.89,55.751a2.924,2.924,0,0,1-1.36.453,5.992,5.992,0,0,1-.258-1.812c0-3.981.519-6.083,1.49-6.342a.831.831,0,0,1,.549.807c0-.161,0-.224-.032-.224a37.942,37.942,0,0,1-.193,4.172C41.987,54.134,41.89,55.136,41.89,55.751Zm1.682-14.98c0,.419-.422.939-1.295,1.521a6.217,6.217,0,0,1-1.553-1.329c.324-.744.68-1.131,1.036-1.131a4.071,4.071,0,0,1,1.812.873Z" transform="translate(-9.758 -29.414)"/>
    <path id="Path_13" data-name="Path 13" d="M66.1,48.946c-.066,1.553-.1,2.555-.1,2.977a1.557,1.557,0,0,0-.907.419A3.393,3.393,0,0,1,63.937,49.5a13.878,13.878,0,0,1,.129-1.49c.063-.775.1-1.261.1-1.487a2.826,2.826,0,0,0-.324-1.49h-.517c-.519,0-2.3.973-5.371,2.848l-4.628,2.879a3.68,3.68,0,0,1-1.875-.873V49.56a10.981,10.981,0,0,1,.129-1.326,12.46,12.46,0,0,0,.129-1.358,2.794,2.794,0,0,0-.422-1.619h-.549c-.485,0-2.784,1.877-6.924,5.661h-.356a2.5,2.5,0,0,1-.809.163,5.909,5.909,0,0,1-.227-1.812c0-3.979.485-5.176,1.49-5.437a.9.9,0,0,1,.517.617c0,.419-.032.9-.2,3.235l-.1.841a4.319,4.319,0,0,1,.419-.258c.161-.132,1.358-1.165,3.591-3.172,1.682-1.521,2.945-2.265,3.881-2.265.97,0,1.49,1.131,1.49,3.43,0,.258-.032.583-.066.9-.032.519-.063.841-.063.97.388.066.614.132.646.132.422-.132,2.2-1.165,5.339-3.043a9.3,9.3,0,0,1,1.261-.9,12.47,12.47,0,0,1,4.077-1.295c1,0,1.49.97,1.49,2.943C66.2,46.422,66.168,47.424,66.1,48.946Zm-21.677-4.5a.525.525,0,0,0,.032.129A.2.2,0,0,1,44.428,44.45Z" transform="translate(-6.666 -25.101)"/>
    <path id="Path_14" data-name="Path 14" d="M77.24,48.946c-.066,1.553-.1,2.555-.1,2.977a1.556,1.556,0,0,0-.907.419A3.393,3.393,0,0,1,75.072,49.5a13.879,13.879,0,0,1,.129-1.49c.063-.775.1-1.261.1-1.487a2.826,2.826,0,0,0-.324-1.49h-.517c-.519,0-2.3.973-5.371,2.848l-4.628,2.879a3.693,3.693,0,0,1-1.877-.873V49.56a11.541,11.541,0,0,1,.129-1.326,11.83,11.83,0,0,0,.129-1.358,2.812,2.812,0,0,0-.419-1.619H61.87c-.485,0-2.782,1.877-6.924,5.661h-.354a2.5,2.5,0,0,1-.809.163,5.835,5.835,0,0,1-.227-1.812c0-3.979.485-5.176,1.487-5.437a.905.905,0,0,1,.519.617c0,.419-.034.9-.2,3.235l-.1.841a4.093,4.093,0,0,1,.422-.258c.161-.132,1.358-1.165,3.591-3.172,1.682-1.521,2.943-2.265,3.882-2.265.97,0,1.487,1.131,1.487,3.43,0,.258-.032.583-.063.9-.032.519-.066.841-.066.97.39.066.617.132.649.132.419-.132,2.2-1.165,5.339-3.043a9.3,9.3,0,0,1,1.26-.9,12.453,12.453,0,0,1,4.077-1.295c1,0,1.487.97,1.487,2.943C77.335,46.422,77.3,47.424,77.24,48.946Zm-21.677-4.5a.525.525,0,0,0,.032.129A.2.2,0,0,1,55.563,44.45Z" transform="translate(9.348 -25.101)"/>
    <path id="Path_15" data-name="Path 15" d="M77.29,46.188c-.129.453-.193.712-.227.844A5.946,5.946,0,0,1,77,48.261c-.519,1.229-1.2,3.106-2.07,5.63a20.7,20.7,0,0,0-1.651,3.138c.1-.2-.227.614-.875,2.458-.193.519-.646,1.651-1.358,3.367-.063.485-.2,1.068-.324,1.812-.032.1-.161.517-.419,1.2a3.981,3.981,0,0,0-.324,1.163.47.47,0,0,0,.066.227,6.823,6.823,0,0,1-1.134,1.326h-.678a3.064,3.064,0,0,1-.485-1.292c0-1.068.709-3.365,2.1-6.893.388-1.068,1.068-2.718,2.007-4.886.258-.485.712-1.358,1.295-2.621a11.673,11.673,0,0,1,.614-1.648A14.453,14.453,0,0,0,74.8,48.68c-.063-.063-.063-.258.034-.583.063-.227.032-.356-.1-.356a17.057,17.057,0,0,0-1.877.712,11.367,11.367,0,0,1-1.875.712,11.143,11.143,0,0,0-1.587.2,9.434,9.434,0,0,1-1.456.227c-.841,0-1.616-.712-2.328-2.1a7.275,7.275,0,0,1-.907-3.3,3.521,3.521,0,0,1,.453-1.326h.9c.778,3.267,1.877,4.918,3.3,4.918a7.964,7.964,0,0,0,4.3-1.846s.939-.678,2.814-2.07a1.368,1.368,0,0,1,1,1.424A4.116,4.116,0,0,1,77.29,46.188Z" transform="translate(25.38 -25.062)"/>
    <path id="Path_16" data-name="Path 16" d="M76.245,38.246a4.977,4.977,0,0,1-1.2,3.04A5.263,5.263,0,0,1,73.108,42.9c-.324.034-.778.132-1.392.261a7.3,7.3,0,0,1-.614-1.036,7.393,7.393,0,0,0,1.326-1.165c.388-.322.744-.646,1.131-1a1.946,1.946,0,0,0,.551-1.326,3.737,3.737,0,0,0-.258-1.424,7.305,7.305,0,0,1-.422-1.424l.649-.227a2.746,2.746,0,0,1,1.941,1.553A2.641,2.641,0,0,1,76.245,38.246Z" transform="translate(34.579 -35.559)"/>
    <path id="Path_17" data-name="Path 17" d="M83.084,50.758a26.66,26.66,0,0,1-3.172,1.1,18.326,18.326,0,0,1-3.17.775.369.369,0,0,1-.261-.1.37.37,0,0,0-.258-.1c-.224,0-.646.324-1.326,1-.453-.324-.678-.614-.678-.809,0-1.165,1.746-2.1,5.305-2.816.258-.063.678-.129,1.229-.258a4.806,4.806,0,0,0,.778-.678,2.843,2.843,0,0,0-1.585-1.231c-.844-.322-2.1-.775-3.786-1.424-1.846-.744-2.75-1.551-2.75-2.426,0-1.131,1.131-1.714,3.428-1.714a24.656,24.656,0,0,1,3.365.293,9.569,9.569,0,0,1,3.14.807l-.258.97c-1.975-.193-4.788-.9-6.861-.161-.063.063-.193.161-.388.324L81.078,46.1c1.972.649,2.879,1.814,2.879,2.879A1.78,1.78,0,0,1,83.084,50.758Z" transform="translate(37.9 -26.169)"/>
  </g>
</svg>
