<svg xmlns="http://www.w3.org/2000/svg" xmlns:xlink="http://www.w3.org/1999/xlink" width="25.803" height="61.779" viewBox="0 0 25.803 61.779">
  <defs>
    <clipPath id="clip-path">
      <path id="Path_22" data-name="Path 22" d="M0,0H25.8V-61.779H0Z"/>
    </clipPath>
  </defs>
  <g id="Group_10" data-name="Group 10" transform="translate(0 61.779)">
    <g id="Group_9" data-name="Group 9" clip-path="url(#clip-path)">
      <g id="Group_7" data-name="Group 7" transform="translate(9.361)">
        <path id="Path_20" data-name="Path 20" d="M0,0H-.134a9.439,9.439,0,0,1-9.225-9.14,9.309,9.309,0,0,1,4.309-8.1l-.014-39.472A5.068,5.068,0,0,1,0-61.779a5.068,5.068,0,0,1,5.063,5.063v39.483a9.328,9.328,0,0,1,4.3,7.873A9.289,9.289,0,0,1,6.572-2.7,9.3,9.3,0,0,1,0,0M0-60.313a3.6,3.6,0,0,0-3.6,3.6v39.5a1.424,1.424,0,0,1-.66,1.2A7.849,7.849,0,0,0-7.893-9.175,7.961,7.961,0,0,0-.114-1.467,8.043,8.043,0,0,0,5.542-3.74,7.836,7.836,0,0,0,7.893-9.36a7.868,7.868,0,0,0-3.638-6.649,1.424,1.424,0,0,1-.659-1.2v-39.5a3.6,3.6,0,0,0-3.6-3.6"/>
      </g>
      <g id="Group_8" data-name="Group 8" transform="translate(11.476 -15.414)">
        <path id="Path_21" data-name="Path 21" d="M0,0V-24.554A2.116,2.116,0,0,0-2.116-26.67a2.117,2.117,0,0,0-2.115,2.116V0a6.412,6.412,0,0,0-4.3,6.053,6.413,6.413,0,0,0,6.412,6.414A6.414,6.414,0,0,0,4.3,6.053,6.414,6.414,0,0,0,0,0"/>
      </g>
    </g>
    <path id="Path_23" data-name="Path 23" d="M16.224-19.865H25.8v-1.749H16.224Z"/>
    <path id="Path_24" data-name="Path 24" d="M23.07-28.679H16.224v-1.748H23.07Z"/>
    <path id="Path_25" data-name="Path 25" d="M16.224-37.495H25.8v-1.748H16.224Z"/>
    <path id="Path_26" data-name="Path 26" d="M23.07-46.309H16.224v-1.748H23.07Z"/>
    <path id="Path_27" data-name="Path 27" d="M16.224-55.124H25.8v-1.749H16.224Z"/>
  </g>
</svg>
