<svg xmlns="http://www.w3.org/2000/svg" xmlns:xlink="http://www.w3.org/1999/xlink" width="46.332" height="61.779" viewBox="0 0 46.332 61.779">
  <defs>
    <clipPath id="clip-path">
      <path id="Path_39" data-name="Path 39" d="M0,0H46.332V-61.779H0Z" fill="none"/>
    </clipPath>
  </defs>
  <g id="Group_25" data-name="Group 25" transform="translate(0 61.779)">
    <g id="Group_24" data-name="Group 24" clip-path="url(#clip-path)">
      <g id="Group_20" data-name="Group 20" transform="translate(45.045 -0.003)">
        <path id="Path_35" data-name="Path 35" d="M0,0V-41.184C0-51.936-10.038-60.489-21.879-60.489s-21.879,8.553-21.879,19.305L-43.661,0" fill="none" stroke="#000" stroke-width="2.574"/>
      </g>
      <g id="Group_21" data-name="Group 21" transform="translate(36.036 -15.447)">
        <path id="Path_36" data-name="Path 36" d="M0,0,5.147-4.349m.372-11.1L0-12.87M-25.74,0l-5.148-4.349m-.371-11.1,5.519,2.574m6.178-18.745c-2.108,1.932-7.465,5.081-7.465,9.736v3.861m29.6,0v-3.861s-5.148-5.148-12.288-5.54c-7.191-.394-11.244-3.864-11.244-8.431" fill="none" stroke="#000" stroke-linecap="round" stroke-width="2.574"/>
      </g>
      <g id="Group_22" data-name="Group 22" transform="translate(23.166 -10.299)">
        <path id="Path_37" data-name="Path 37" d="M0,0H2.34C4.681,0,12.87-5.148,12.87-5.148v-12.87C9.361-18.018,3.7-20.592,0-20.592s-9.359,2.574-12.87,2.574v12.87S-4.679,0-2.339,0Z" fill="none" stroke="#000" stroke-linejoin="round" stroke-width="2.574"/>
      </g>
      <g id="Group_23" data-name="Group 23" transform="translate(30.888 -12.247)">
        <path id="Path_38" data-name="Path 38" d="M0,0V5.744A3.918,3.918,0,0,0,3.072,9.472l4.651,1.484M-15.443,0V5.744a3.917,3.917,0,0,1-3.071,3.728l-4.652,1.484" fill="none" stroke="#000" stroke-linecap="round" stroke-width="2.574"/>
      </g>
    </g>
  </g>
</svg>
