<svg xmlns="http://www.w3.org/2000/svg" xmlns:xlink="http://www.w3.org/1999/xlink" width="78.451" height="61.779" viewBox="0 0 78.451 61.779">
  <defs>
    <clipPath id="clip-path">
      <path id="Path_29" data-name="Path 29" d="M0,0H78.451V-61.779H0Z" fill="none"/>
    </clipPath>
  </defs>
  <g id="Group_13" data-name="Group 13" transform="translate(0 61.779)">
    <g id="Group_12" data-name="Group 12" clip-path="url(#clip-path)">
      <g id="Group_11" data-name="Group 11" transform="translate(14.945 -22.54)">
        <path id="Path_28" data-name="Path 28" d="M0,0V21.253M-7.588-13.663V21.253m15.176,0V-13.663M-7.588,1.518a6.4,6.4,0,0,1-6.07-6.072V-15.181c0-5.014,8.386-7.59,13.658-7.59M7.588,1.518a6.4,6.4,0,0,0,6.069-6.072V-15.181c0-5.014-8.386-7.59-13.657-7.59M27.315,7.59h3.036m-10.623,0h3.036M0-22.771a5.819,5.819,0,0,0,6.07-6.072V-31.88A5.819,5.819,0,0,0,0-37.952,5.818,5.818,0,0,0-6.069-31.88v3.037A5.818,5.818,0,0,0,0-22.771ZM48.561,0V21.253M40.974-13.663V21.253m15.175,0V-13.663M40.974,1.518A6.4,6.4,0,0,1,34.9-4.554V-15.181c0-5.014,8.386-7.59,13.658-7.59M56.149,1.518a6.4,6.4,0,0,0,6.07-6.072V-15.181c0-5.014-8.386-7.59-13.658-7.59m0,0a5.819,5.819,0,0,0,6.071-6.072V-31.88a5.819,5.819,0,0,0-6.071-6.072,5.818,5.818,0,0,0-6.07,6.072v3.037A5.818,5.818,0,0,0,48.561-22.771Z" fill="none" stroke="#000" stroke-linecap="round" stroke-linejoin="round" stroke-width="2.574"/>
      </g>
    </g>
  </g>
</svg>
