<svg xmlns="http://www.w3.org/2000/svg" xmlns:xlink="http://www.w3.org/1999/xlink" width="55.742" height="61.779" viewBox="0 0 55.742 61.779">
  <defs>
    <clipPath id="clip-path">
      <path id="Path_34" data-name="Path 34" d="M0,0H55.742V-61.779H0Z"/>
    </clipPath>
  </defs>
  <g id="Group_19" data-name="Group 19" transform="translate(0 61.779)">
    <g id="Group_18" data-name="Group 18" clip-path="url(#clip-path)">
      <g id="Group_14" data-name="Group 14" transform="translate(23.325 -0.03)">
        <path id="Path_30" data-name="Path 30" d="M0,0A1.17,1.17,0,0,1-.983-.531l-1.8-2.736a1.664,1.664,0,0,0-1.089-.584l-3.285.01A3.951,3.951,0,0,1-10.2-5.487L-12-8.222a1.665,1.665,0,0,0-1.093-.585l-3.27.01a1.184,1.184,0,0,1-1.015-.576,1.179,1.179,0,0,1-.018-1.168,26.972,26.972,0,0,1,5.309-6.665l.021-.019-.018-.022a23.78,23.78,0,0,1-4.893-9.681l-.006-.023H-17.8c-3.572,0-5.5-3.3-5.5-6.407a6.274,6.274,0,0,1,1.024-3.576,4.06,4.06,0,0,1,3.409-1.779h1.519v-.03a55.272,55.272,0,0,1,.615-10.239,8.556,8.556,0,0,1,3.95-6.1,7.149,7.149,0,0,1,3.7-1.023,7.72,7.72,0,0,1,2.058.285l.015,0,.011-.009q.257-.194.523-.4l.054-.041c2.463-1.883,5.527-4.226,9.739-5.106a16.6,16.6,0,0,1,3.4-.35c3.971,0,8.129,1.373,12.71,4.2,2.073,1.279,3.2,1.71,4.481,1.71a15.751,15.751,0,0,0,3.857-.759c.519-.139,1.107-.3,1.756-.464a1.19,1.19,0,0,1,.291-.036,1.18,1.18,0,0,1,.75.269,1.183,1.183,0,0,1,.424.979,9.83,9.83,0,0,1-3.926,7.691c-.3.26-.575.5-.821.744-.649.64-.779.843-.572,2.777l.642,5.9h1.636a4.06,4.06,0,0,1,3.409,1.779,6.274,6.274,0,0,1,1.024,3.576c0,3.106-1.928,6.407-5.5,6.407H26.07l0,.024A20.206,20.206,0,0,1,24.833-23.2a19.378,19.378,0,0,1-2.665,4.519,38.554,38.554,0,0,1-2.846,3.027c-.216.214-.432.427-.646.642A44.02,44.02,0,0,1,14.7-11.425a16.765,16.765,0,0,1-4.582,2.4,16.273,16.273,0,0,1-4.973,1.1H5.128L5.119-7.9C4.589-6.95,4.053-6,3.408-4.858l-.018.033c-.776,1.374-1.578,2.8-2.359,4.216A1.183,1.183,0,0,1,.046,0H0M-3.872-6.2A3.965,3.965,0,0,1-.811-4.558l.727,1.109.024-.043c.477-.852.953-1.695,1.42-2.522,3.634-6.44,7.39-13.1,6.625-15.794a1.337,1.337,0,0,0-.686-.867,4.2,4.2,0,0,0-1.958-.376,20.526,20.526,0,0,0-8.522,2.5A29.875,29.875,0,0,0-14.221-11.2l-.032.048,1.157,0a3.968,3.968,0,0,1,3.064,1.646l1.8,2.735a1.622,1.622,0,0,0,1.081.585ZM5.291-25.409a6.51,6.51,0,0,1,3.143.673,3.668,3.668,0,0,1,1.814,2.286c.819,2.884-1.3,7.451-3.711,11.956l-.03.056.062-.012A16.378,16.378,0,0,0,9.3-11.227a17.212,17.212,0,0,0,4.448-2.4,41.66,41.66,0,0,0,3.747-3.336,27.229,27.229,0,0,0,3.344-3.829,16.923,16.923,0,0,0,3.248-9.384v-6.318l-.027,0-2.49-.291a134.311,134.311,0,0,1-23.11-4.21c-.492-.129-.931-.259-1.319-.374a8.256,8.256,0,0,0-2.383-.482,5.961,5.961,0,0,0-1.621.255,16.917,16.917,0,0,0-8.116,4.551l-.009.009v6.863c0,3.517,1.708,7.666,4.688,11.384l.019.024.023-.019a34.594,34.594,0,0,1,6.017-3.871,22.488,22.488,0,0,1,9.534-2.754m21.147-4.764c0,.264-.01.546-.028.837l0,.032h.478c2.309,0,3.148-2.424,3.148-4.054a3.989,3.989,0,0,0-.6-2.227,1.7,1.7,0,0,0-1.482-.776H26.438Zm-45.3-6.188a1.7,1.7,0,0,0-1.481.776,3.981,3.981,0,0,0-.6,2.227c0,1.63.838,4.054,3.147,4.054h.48l0-.032c-.017-.282-.026-.563-.026-.837v-6.188ZM-5.235-44.2a10.229,10.229,0,0,1,3.042.578c.389.115.79.234,1.246.353a132.386,132.386,0,0,0,22.787,4.15l2.054.239.038.005-.6-5.478c-.228-2.129-.178-3.287,1.26-4.706.3-.295.618-.572.926-.841a7.37,7.37,0,0,0,2.9-4.357l.011-.049-.049.013a17.55,17.55,0,0,1-4.434.834c-1.714,0-3.379-.595-5.746-2.056-4.2-2.591-7.965-3.85-11.506-3.85-5.17,0-8.779,2.759-11.678,4.975-.381.292-.742.567-1.1.831a1.166,1.166,0,0,1-.7.231,1.181,1.181,0,0,1-.4-.072,5.521,5.521,0,0,0-1.89-.35,4.827,4.827,0,0,0-2.5.7,6.185,6.185,0,0,0-2.826,4.42,47.513,47.513,0,0,0-.586,8.4v.063l.049-.04A18.757,18.757,0,0,1-7.5-43.861,8.356,8.356,0,0,1-5.235-44.2"/>
      </g>
      <g id="Group_15" data-name="Group 15" transform="translate(30.05 -61.718)">
        <path id="Path_31" data-name="Path 31" d="M0,0C3.966,0,8.118,1.372,12.695,4.194c2.078,1.282,3.213,1.715,4.5,1.715a15.8,15.8,0,0,0,3.865-.76c.519-.14,1.106-.3,1.756-.464a1.143,1.143,0,0,1,1.014.227,1.151,1.151,0,0,1,.414.953,9.805,9.805,0,0,1-3.916,7.671l0,0c-.294.256-.571.5-.818.741-.657.648-.789.854-.58,2.8l.638,5.868.006.054h1.663a4.031,4.031,0,0,1,3.385,1.767,6.244,6.244,0,0,1,1.018,3.559c0,3.091-1.917,6.376-5.47,6.376h-.84l-.01.047a20.176,20.176,0,0,1-1.23,3.721,19.361,19.361,0,0,1-2.661,4.513,38.476,38.476,0,0,1-2.844,3.024c-.216.214-.432.427-.646.642a42.59,42.59,0,0,1-3.974,3.585,16.707,16.707,0,0,1-4.574,2.4,16.283,16.283,0,0,1-4.964,1.1h-.033l-.016.029c-.532.954-1.067,1.9-1.711,3.046l-.027.047c-.773,1.37-1.572,2.787-2.351,4.2a1.152,1.152,0,0,1-.96.592h-.045a1.143,1.143,0,0,1-.958-.517L-9.478,58.4a1.667,1.667,0,0,0-1.115-.6l-3.272.01h-.013A3.917,3.917,0,0,1-16.9,56.185l-1.8-2.735a1.675,1.675,0,0,0-1.119-.6l-3.273.01a1.153,1.153,0,0,1-.986-.561,1.152,1.152,0,0,1-.018-1.138,26.965,26.965,0,0,1,5.3-6.658l.041-.038-.035-.044a23.737,23.737,0,0,1-4.887-9.668l-.011-.047h-.837c-3.553,0-5.47-3.285-5.47-6.377a6.243,6.243,0,0,1,1.018-3.558A4.033,4.033,0,0,1-25.586,23h1.549v-.06a55.317,55.317,0,0,1,.614-10.234,8.53,8.53,0,0,1,3.936-6.076A7.12,7.12,0,0,1-15.8,5.616a7.7,7.7,0,0,1,2.051.284l.028.008.024-.018c.171-.129.345-.262.524-.4l.053-.04C-10.659,3.569-7.6,1.229-3.393.35A16.628,16.628,0,0,1,0,0M-13.506,8.327a1.146,1.146,0,0,1-.393-.07,5.555,5.555,0,0,0-1.9-.352,4.863,4.863,0,0,0-2.516.7,6.215,6.215,0,0,0-2.84,4.442,47.564,47.564,0,0,0-.587,8.4v.127l.1-.08a18.756,18.756,0,0,1,7.427-3.642,8.344,8.344,0,0,1,2.257-.34,10.219,10.219,0,0,1,3.035.576c.389.116.79.235,1.246.354A132.441,132.441,0,0,0,15.112,22.6l.027,0c.649.075,1.323.153,2.027.236l.076.009-.009-.076-.591-5.44c-.228-2.119-.178-3.271,1.25-4.681.3-.293.616-.57.927-.841a7.4,7.4,0,0,0,2.9-4.372l.021-.1-.1.026a17.512,17.512,0,0,1-4.426.834c-1.709,0-3.369-.595-5.731-2.052C7.285,3.551,3.516,2.29-.031,2.29c-5.18,0-8.793,2.762-11.7,4.981l-.007.006c-.38.29-.739.564-1.091.825a1.138,1.138,0,0,1-.681.225m-3.507,34.638.047-.037a34.6,34.6,0,0,1,6.012-3.868,22.458,22.458,0,0,1,9.52-2.751,6.487,6.487,0,0,1,3.129.67,3.636,3.636,0,0,1,1.8,2.268,8.733,8.733,0,0,1-.533,5.045A47,47,0,0,1-.214,51.181l-.059.11.123-.023a16.5,16.5,0,0,0,2.734-.778,17.276,17.276,0,0,0,4.456-2.4,41.569,41.569,0,0,0,3.749-3.338,27.172,27.172,0,0,0,3.348-3.833,16.95,16.95,0,0,0,3.254-9.4V25.171l-.054-.007-2.491-.29a134.36,134.36,0,0,1-23.1-4.21c-.492-.129-.931-.259-1.318-.374a8.3,8.3,0,0,0-2.391-.482,5.987,5.987,0,0,0-1.63.256,16.939,16.939,0,0,0-8.128,4.558l-.019.017v6.876c0,3.524,1.711,7.68,4.7,11.4ZM19.652,32.414h.509c2.332,0,3.178-2.442,3.178-4.084a4.014,4.014,0,0,0-.6-2.244,1.731,1.731,0,0,0-1.507-.788H19.683v6.217c0,.264-.009.545-.027.835Zm-44.171,0h.511l0-.064c-.017-.281-.025-.562-.025-.835V25.3h-1.549a1.732,1.732,0,0,0-1.507.788,4.014,4.014,0,0,0-.6,2.244c0,1.642.846,4.084,3.178,4.084m3.484,18.148h.115l1.1,0a3.931,3.931,0,0,1,3.038,1.633l1.8,2.735a1.661,1.661,0,0,0,1.11.6l3.278-.011a3.929,3.929,0,0,1,3.035,1.633l.7,1.068.055.083.048-.087c.46-.822.915-1.629,1.42-2.523,3.636-6.443,7.4-13.106,6.627-15.816a1.363,1.363,0,0,0-.7-.885,4.238,4.238,0,0,0-1.972-.379,20.54,20.54,0,0,0-8.536,2.5A29.889,29.889,0,0,0-20.97,50.467ZM0-.06A16.569,16.569,0,0,0-3.4.291c-4.218.881-7.286,3.227-9.75,5.111l-.577.44A7.739,7.739,0,0,0-15.8,5.556a7.23,7.23,0,0,0-3.719,1.027A8.59,8.59,0,0,0-23.483,12.7,55.548,55.548,0,0,0-24.1,22.945h-1.489a4.09,4.09,0,0,0-3.434,1.792,6.308,6.308,0,0,0-1.03,3.593c0,3.121,1.938,6.437,5.531,6.437h.789a23.879,23.879,0,0,0,4.9,9.693,27.174,27.174,0,0,0-5.315,6.673,1.2,1.2,0,0,0,.018,1.2,1.207,1.207,0,0,0,1.038.592h0l3.269-.011a1.625,1.625,0,0,1,1.068.572l1.8,2.735a3.981,3.981,0,0,0,3.073,1.66h.013l3.272-.011a1.621,1.621,0,0,1,1.064.571l1.8,2.736a1.2,1.2,0,0,0,1.008.544h.047a1.21,1.21,0,0,0,1.011-.624c.787-1.431,1.6-2.864,2.377-4.249C-2.7,55.8-2.127,54.784-1.579,53.8A16.412,16.412,0,0,0,3.4,52.7a17.12,17.12,0,0,0,4.59-2.409A43.375,43.375,0,0,0,11.972,46.7a49.022,49.022,0,0,0,3.495-3.67,19.584,19.584,0,0,0,2.67-4.527,20.226,20.226,0,0,0,1.233-3.732h.791c3.593,0,5.531-3.316,5.531-6.436a6.316,6.316,0,0,0-1.029-3.594,4.091,4.091,0,0,0-3.435-1.792H19.619l-.638-5.869c-.206-1.92-.078-2.121.562-2.752.247-.243.526-.486.821-.743A9.86,9.86,0,0,0,24.3,5.869a1.208,1.208,0,0,0-1.5-1.243c-.644.165-1.235.324-1.757.465a15.728,15.728,0,0,1-3.849.757c-1.3,0-2.465-.472-4.465-1.706C8.165,1.33,3.969-.06,0-.06M-13.506,8.387a1.212,1.212,0,0,0,.717-.236c.355-.263.716-.539,1.1-.832C-8.774,5.09-5.19,2.351-.031,2.351c3.167,0,6.926,1.031,11.491,3.845,2.467,1.522,4.12,2.061,5.762,2.061a17.435,17.435,0,0,0,4.442-.835,7.356,7.356,0,0,1-2.886,4.34c-.308.269-.628.548-.928.843-1.447,1.428-1.5,2.591-1.268,4.731l.591,5.44-2.054-.239a132.525,132.525,0,0,1-22.783-4.15c-.454-.118-.855-.237-1.244-.353a10.284,10.284,0,0,0-3.052-.579,8.354,8.354,0,0,0-2.273.343,18.874,18.874,0,0,0-7.448,3.653,47.231,47.231,0,0,1,.585-8.4,6.157,6.157,0,0,1,2.812-4.4A4.833,4.833,0,0,1-15.8,7.966a5.454,5.454,0,0,1,1.879.348,1.213,1.213,0,0,0,.414.073M-17,42.881c-2.947-3.678-4.682-7.857-4.682-11.366v-6.85a16.807,16.807,0,0,1,8.1-4.543,5.919,5.919,0,0,1,1.614-.254,8.18,8.18,0,0,1,2.374.48c.388.115.828.246,1.32.374A134.39,134.39,0,0,0,14.84,24.934c.789.091,1.617.187,2.49.29v6.292a16.961,16.961,0,0,1-3.243,9.366,27.432,27.432,0,0,1-3.34,3.825A41.343,41.343,0,0,1,7,48.04a17.187,17.187,0,0,1-4.441,2.393,16.448,16.448,0,0,1-2.724.776c2.753-5.145,4.486-9.258,3.713-11.979a3.693,3.693,0,0,0-1.828-2.3,6.566,6.566,0,0,0-3.158-.677,22.487,22.487,0,0,0-9.547,2.757A34.656,34.656,0,0,0-17,42.881M19.716,32.354q.027-.423.027-.839V25.358h1.485a1.675,1.675,0,0,1,1.458.763,3.952,3.952,0,0,1,.593,2.209c0,1.618-.83,4.024-3.118,4.024Zm-44.235,0c-2.287,0-3.118-2.406-3.118-4.024a3.952,3.952,0,0,1,.594-2.209,1.673,1.673,0,0,1,1.457-.763H-24.1v6.157q0,.416.026.839Zm3.6,18.148A29.886,29.886,0,0,1-9.892,41.159a20.351,20.351,0,0,1,8.509-2.491,4.166,4.166,0,0,1,1.943.371,1.315,1.315,0,0,1,.671.85c.762,2.685-2.992,9.337-6.622,15.77-.467.827-.943,1.671-1.419,2.522l-.7-1.067a3.992,3.992,0,0,0-3.085-1.66l-3.279.01h0a1.606,1.606,0,0,1-1.056-.571l-1.8-2.735A4,4,0,0,0-19.82,50.5Z"/>
      </g>
      <g id="Group_16" data-name="Group 16" transform="translate(19.729 -14.6)">
        <path id="Path_32" data-name="Path 32" d="M0,0A1.17,1.17,0,0,1-1-.554,1.179,1.179,0,0,1-.624-2.175,25.984,25.984,0,0,1,6.813-5.4a1.2,1.2,0,0,1,.28-.033,1.173,1.173,0,0,1,1.142.9,1.167,1.167,0,0,1-.137.89,1.167,1.167,0,0,1-.727.532A23.619,23.619,0,0,0,.622-.179,1.177,1.177,0,0,1,0,0"/>
      </g>
      <g id="Group_17" data-name="Group 17" transform="translate(26.822 -20.001)">
        <path id="Path_33" data-name="Path 33" d="M0,0A1.143,1.143,0,0,1,1.113.875a1.142,1.142,0,0,1-.134.867,1.141,1.141,0,0,1-.708.518A23.6,23.6,0,0,0-6.487,5.2a1.144,1.144,0,0,1-.606.174,1.139,1.139,0,0,1-.973-.54A1.147,1.147,0,0,1-7.7,3.252,25.933,25.933,0,0,1-.273.033,1.152,1.152,0,0,1,0,0M0-.06a1.229,1.229,0,0,0-.287.034A25.991,25.991,0,0,0-7.733,3.2a1.207,1.207,0,0,0-.385,1.662,1.205,1.205,0,0,0,1.025.568,1.2,1.2,0,0,0,.638-.183A23.528,23.528,0,0,1,.285,2.319,1.207,1.207,0,0,0,1.171.86,1.205,1.205,0,0,0,0-.06"/>
      </g>
    </g>
  </g>
</svg>
