<svg xmlns="http://www.w3.org/2000/svg" xmlns:xlink="http://www.w3.org/1999/xlink" width="65.928" height="61.779" viewBox="0 0 65.928 61.779">
  <defs>
    <clipPath id="clip-path">
      <path id="Path_42" data-name="Path 42" d="M0,0H65.928V-61.779H0Z"/>
    </clipPath>
  </defs>
  <g id="Group_29" data-name="Group 29" transform="translate(0 61.779)">
    <g id="Group_28" data-name="Group 28" clip-path="url(#clip-path)">
      <g id="Group_26" data-name="Group 26" transform="translate(64.756 -33.356)">
        <path id="Path_40" data-name="Path 40" d="M0,0-4.706-4.7-25.172-25.113a9.388,9.388,0,0,0-13.239,0L-58.167-5.4l-.709.708L-63.583,0a2.015,2.015,0,0,0,0,2.857,2.028,2.028,0,0,0,2.862,0L-59.162,1.3V27.033c0,.025,0,.05,0,.075a5.834,5.834,0,0,0,3.878,5.335c.072.025.144.049.218.072s.152.046.229.066.158.041.24.058q.257.059.521.091a5.849,5.849,0,0,0,.741.047H-10.25a5.865,5.865,0,0,0,.742-.047c.175-.022.349-.052.52-.091.082-.017.162-.038.24-.058s.154-.042.229-.066.146-.047.218-.072a5.836,5.836,0,0,0,3.879-5.335c0-.025,0-.05,0-.075V1.3l1.559,1.555a2.022,2.022,0,0,0,1.43.591A2.027,2.027,0,0,0,0,2.857,2.018,2.018,0,0,0,0,0M-25.721,28.731H-37.863V12.8a2.279,2.279,0,0,1,2.277-2.275H-28A2.276,2.276,0,0,1-25.721,12.8Zm17.243-1.7a1.76,1.76,0,0,1-1.772,1.748H-21.671V12.8A6.332,6.332,0,0,0-28,6.479h-7.59A6.331,6.331,0,0,0-41.911,12.8V28.781H-53.333a1.763,1.763,0,0,1-1.775-1.748V-2.743l19.561-19.515a5.326,5.326,0,0,1,7.513,0L-8.478-2.746Z"/>
      </g>
      <g id="Group_27" data-name="Group 27" transform="translate(64.756 -33.356)">
        <path id="Path_41" data-name="Path 41" d="M0,0-4.706-4.7-25.172-25.113a9.388,9.388,0,0,0-13.239,0L-58.167-5.4l-.709.708L-63.583,0a2.015,2.015,0,0,0,0,2.857,2.028,2.028,0,0,0,2.862,0L-59.162,1.3V27.033c0,.025,0,.05,0,.075a5.834,5.834,0,0,0,3.878,5.335c.072.025.144.049.218.072s.152.046.229.066.158.041.24.058q.257.059.521.091a5.849,5.849,0,0,0,.741.047H-10.25a5.865,5.865,0,0,0,.742-.047c.175-.022.349-.052.52-.091.082-.017.162-.038.24-.058s.154-.042.229-.066.146-.047.218-.072a5.836,5.836,0,0,0,3.879-5.335c0-.025,0-.05,0-.075V1.3l1.559,1.555a2.022,2.022,0,0,0,1.43.591A2.027,2.027,0,0,0,0,2.857,2.018,2.018,0,0,0,0,0ZM-25.721,28.731H-37.863V12.8a2.279,2.279,0,0,1,2.277-2.275H-28A2.276,2.276,0,0,1-25.721,12.8Zm17.243-1.7a1.76,1.76,0,0,1-1.772,1.748H-21.671V12.8A6.332,6.332,0,0,0-28,6.479h-7.59A6.331,6.331,0,0,0-41.911,12.8V28.781H-53.333a1.763,1.763,0,0,1-1.775-1.748V-2.743l19.561-19.515a5.326,5.326,0,0,1,7.513,0L-8.478-2.746Z" stroke="#fff" stroke-width="1.158"/>
      </g>
    </g>
  </g>
</svg>
