<svg xmlns="http://www.w3.org/2000/svg" xmlns:xlink="http://www.w3.org/1999/xlink" width="60.655" height="53.662" viewBox="0 0 60.655 53.662">
  <defs>
    <clipPath id="clip-path">
      <path id="Path_54" data-name="Path 54" d="M0,0H60.655V-53.662H0Z"/>
    </clipPath>
  </defs>
  <g id="Group_42" data-name="Group 42" transform="translate(0 53.662)">
    <g id="Group_41" data-name="Group 41" clip-path="url(#clip-path)">
      <g id="Group_40" data-name="Group 40" transform="translate(60.499 -27.54)">
        <path id="Path_53" data-name="Path 53" d="M0,0A1.147,1.147,0,0,0-1.569-.418L-3.393.637A14.416,14.416,0,0,0-7.11,3.73L-9.8,6.86a7.381,7.381,0,0,0-.551-.632,1.171,1.171,0,0,0-.165-.189,4.575,4.575,0,0,0-.519-.407,4.443,4.443,0,0,0-1.035-.578,1.15,1.15,0,0,0-.369-.075,4.733,4.733,0,0,0-3.951.65l-.023.016a4.806,4.806,0,0,0-1.963,4.307,4.5,4.5,0,0,0-2.731.768,1.311,1.311,0,0,0-.172.142l0,0a4.428,4.428,0,0,0-1.756,2.972,4.405,4.405,0,0,0-3.326.71,4.544,4.544,0,0,0-1.871,3.177,1.126,1.126,0,0,0-.218.224,4.2,4.2,0,0,0-2.717.713.189.189,0,0,0-.027.02,4.3,4.3,0,0,0-1.778,3.486,4.543,4.543,0,0,0,.343,1.693,2.762,2.762,0,0,1-.82.086c-.086-.007-.169-.009-.25-.013l-.116,0a2.953,2.953,0,0,1-1.844-1.14l-.013-.016a2.328,2.328,0,0,1-.383-.8L-20.131,9.362a1.148,1.148,0,0,0,.187-1.614,1.149,1.149,0,0,0-1.614-.188L-38.092,20.65a1.141,1.141,0,0,0-.34.442l-.005,0a3.482,3.482,0,0,1-2.221.637c-.02,0-.041,0-.062,0-.1,0-.25-.007-.367-.016a3.66,3.66,0,0,1-2.27-1.392,3.226,3.226,0,0,1-.656-1.8L-28.554,6.288a1.148,1.148,0,0,0,.188-1.614,1.147,1.147,0,0,0-1.613-.188L-45.443,16.729c-.06,0-.122-.008-.185-.01l-.451-.025H-46.1a3.346,3.346,0,0,1-2.627-1.254,3.2,3.2,0,0,1-.444-.846L-34.99,3.3a1.149,1.149,0,0,0,.183-1.614A1.149,1.149,0,0,0-36.422,1.5l-13.6,10.828a1.153,1.153,0,0,0-.69-.1,4.572,4.572,0,0,1-1,.071h-.063c-.1,0-.251-.008-.366-.016a3.669,3.669,0,0,1-2.252-1.367A3.621,3.621,0,0,1-53.5,6.067l.048-.038.073-.059,22.82-16.8a31.376,31.376,0,0,1,3.932,4.178c1.3,3.985,2.907,6.334,4.913,7.179A4.272,4.272,0,0,0-18.05.349a3.239,3.239,0,0,0,1.6-3.916,51.449,51.449,0,0,1-1.42-8.084,1.162,1.162,0,0,0-.1-.371A13.494,13.494,0,0,0-21.941-16.8l7.355.086h.079a6.415,6.415,0,0,0,3.22-.876L-.416-23.92A1.149,1.149,0,0,0,0-25.492a1.15,1.15,0,0,0-1.572-.413l-10.868,6.331a4.129,4.129,0,0,1-2.117.564l-11.887-.138a1.146,1.146,0,0,0-.734-.009l-1.576-.019c-.368-.131-.69-.236-.933-.316-.153-.048-.309-.1-.366-.122a1.132,1.132,0,0,0-.166-.051,22.865,22.865,0,0,0-10.963.047,6.9,6.9,0,0,1-4.637-.413l-13.051-5.986a1.15,1.15,0,0,0-1.523.565,1.15,1.15,0,0,0,.565,1.525l13.051,5.986a9.207,9.207,0,0,0,6.19.543,20.545,20.545,0,0,1,9.791-.04c.105.036.233.079.4.132.268.088.636.207,1.043.356a1.133,1.133,0,0,0,.382.07l1.971.024c.947.492,2.463,1.171,2.719,1.285a10.843,10.843,0,0,1,4.15,4.349,50.723,50.723,0,0,0,1.5,8.374.932.932,0,0,1-.439,1.139,2,2,0,0,1-1.751.116c-1.786-.754-3.072-4.059-3.68-5.962a1.169,1.169,0,0,0-.19-.359c-.327-.418-3.259-4.121-5.3-5.322a1.149,1.149,0,0,0-1.263.065L-53.022,2.851a11.946,11.946,0,0,0-4.422-4.168L-58.8-2.06a1.148,1.148,0,0,0-1.559.455A1.148,1.148,0,0,0-59.9-.045L-58.547.7a9.671,9.671,0,0,1,3.669,3.519l-.268.2a1.075,1.075,0,0,0-.218.213,5.955,5.955,0,0,0-.922,7.583c.014.021.028.041.043.061a5.931,5.931,0,0,0,3.758,2.281c.034.006.069.01.1.013.146.012.38.027.579.028.065,0,.131,0,.2.005a1.225,1.225,0,0,0,.109.221,5.447,5.447,0,0,0,.91,1.964,5.391,5.391,0,0,0,3.728,2.139,1.19,1.19,0,0,0,.157.267,1.148,1.148,0,0,0,.515.368,5.614,5.614,0,0,0,.995,2.149,5.917,5.917,0,0,0,3.757,2.279c.035.006.069.011.1.014.148.012.382.026.577.027a5.81,5.81,0,0,0,2.816-.565,4.3,4.3,0,0,0,.425.689A5.3,5.3,0,0,0-34.178,26.2c.039.006.076.012.116.015.089.007.177.011.268.015.059,0,.119,0,.182.01h.024a5.121,5.121,0,0,0,2.291-.413l.05.046a4.136,4.136,0,0,0,2.646,1.6,4.441,4.441,0,0,0,.742.062,4.2,4.2,0,0,0,2.4-.746l.013-.01a4.257,4.257,0,0,0,1.553-2.161,4.462,4.462,0,0,0,3.47.051A4.363,4.363,0,0,0-17.85,21.7a4.454,4.454,0,0,0,3.873-.581,1.209,1.209,0,0,0,.16-.134l0,0a4.4,4.4,0,0,0,1.766-3.08,4.725,4.725,0,0,0,3.616-.734l.022-.016a4.755,4.755,0,0,0,1.109-6.6L-8.485,8.86l3.121-3.635a12.1,12.1,0,0,1,3.125-2.6L-.418,1.57A1.149,1.149,0,0,0,0,0M-26.774,24.91a1.98,1.98,0,0,1-1.44.3,1.856,1.856,0,0,1-1.228-.759l-.01-.014-.54-.755a1.155,1.155,0,0,0-.338-.312,2.665,2.665,0,0,1-.345-1.165c0-.027,0-.03,0-.062a2.03,2.03,0,0,1,.819-1.6,1.86,1.86,0,0,1,1.425-.277,1.139,1.139,0,0,0,.639-.029l1.719,2.442a2.019,2.019,0,0,1-.7,2.224m5.479-2.362a2.236,2.236,0,0,1-2.527-.659L-26,18.794a1.135,1.135,0,0,0,.043-.4,2.246,2.246,0,0,1,.911-1.964,2.142,2.142,0,0,1,2.255-.106,1.138,1.138,0,0,0,.206.083l2.491,3.534c0,.005,0,.01,0,.015a2.143,2.143,0,0,1-1.2,2.587m6.081-3.39a1.094,1.094,0,0,0-.149.123,2.2,2.2,0,0,1-2.511-.156.994.994,0,0,0-.066-.107l-2.788-3.958a1.152,1.152,0,0,0-.016-.226,2.147,2.147,0,0,1,.868-2.145,1.2,1.2,0,0,0,.139-.115,2.251,2.251,0,0,1,2.483.1c.02.014.043.025.066.039l2.66,3.776a2.139,2.139,0,0,1-.686,2.668m5.461-3.871a2.466,2.466,0,0,1-2.921-.155l-2.969-4.216-.006-.006s0,0,0-.005a2.453,2.453,0,0,1,.584-3.395,2.472,2.472,0,0,1,2.685-.02,5.463,5.463,0,0,1,1.4,1.788h0s.005.008.006.012a1.317,1.317,0,0,0,.086.147l.005.009,1.7,2.43.01.015a2.453,2.453,0,0,1-.584,3.395"/>
      </g>
    </g>
  </g>
</svg>
