<svg xmlns="http://www.w3.org/2000/svg" xmlns:xlink="http://www.w3.org/1999/xlink" width="56.026" height="56.945" viewBox="0 0 56.026 56.945">
  <defs>
    <clipPath id="clip-path">
      <path id="Path_19" data-name="Path 19" d="M0,0H56.026V-56.945H0Z" fill="none"/>
    </clipPath>
  </defs>
  <g id="Group_6" data-name="Group 6" transform="translate(0 56.945)">
    <g id="Group_5" data-name="Group 5" clip-path="url(#clip-path)">
      <g id="Group_4" data-name="Group 4" transform="translate(14.19 -52.079)">
        <path id="Path_18" data-name="Path 18" d="M0,0A3.578,3.578,0,0,1-3.578,3.579,3.579,3.579,0,0,1-7.156,0,3.58,3.58,0,0,1-3.578-3.579,3.58,3.58,0,0,1,0,0ZM40.549,5.964a3.578,3.578,0,1,1-3.577-3.578A3.578,3.578,0,0,1,40.549,5.964Zm-42.513,4.28h0A4.55,4.55,0,0,0-3.248,9.067a4.611,4.611,0,0,0-6.349,1.5,4.561,4.561,0,0,0-.674,2.576m.4,8.128a4.379,4.379,0,0,1-.953-.44,4.343,4.343,0,0,1-1.435-5.975,4.323,4.323,0,0,1,3.6-2.059m26-7.691A6.561,6.561,0,0,0,4.828,6.959m19.724,13.3c.166.014.333.02.5.02a5.964,5.964,0,0,0,0-11.928,7.108,7.108,0,0,0-1.305.156M19.091,22.664A4.771,4.771,0,1,0,27.6,19.7M23.62,11.046a4.771,4.771,0,0,0-8.308-4.415m-1.364,7.494,2.27,1.005a2.289,2.289,0,0,1,1.167,3.019L10.947,32.69l.558,2.421a39.932,39.932,0,0,1,5.329-3.43c1.5-.578,3.6-.3,4.044,2.146-1.786,1.5-6.711,7.3-6.711,7.3a29.755,29.755,0,0,1-6.455,3.559,4.775,4.775,0,0,0-2.605,2.127L3.342,49.868M-11.926,43.1l1.932-4.362c.651-1.469-.7-4.313.277-6.52l7.682-17.349A2.469,2.469,0,0,1,1.2,13.7l2.093.927m5.344,11.5,5.8-13.088a2.346,2.346,0,0,0-1.171-3.128,2.429,2.429,0,0,0-3.192,1.2L4.275,24.191M-.57,23.348,4.259,12.442a2.471,2.471,0,0,1,3.235-1.176l2.093.927M28.979,28.984,30.8,34.168m5.477,15.588-.805-3.434a4.769,4.769,0,0,1,.441-3.336,29.709,29.709,0,0,0,2.261-7.015s-.385-7.6-.112-9.917c-2-1.47-3.723-.236-4.417,1.209a40.1,40.1,0,0,0-1.532,6.15s-4.776,2-5.046,7.141M18.944,50.792c-.533-1.516-3.464-2.662-4.264-4.939" fill="none" stroke="#000" stroke-linecap="round" stroke-linejoin="round" stroke-width="2.574"/>
      </g>
    </g>
  </g>
</svg>
