<svg xmlns="http://www.w3.org/2000/svg" xmlns:xlink="http://www.w3.org/1999/xlink" width="58.991" height="61.779" viewBox="0 0 58.991 61.779">
  <defs>
    <clipPath id="clip-path">
      <path id="Path_44" data-name="Path 44" d="M0,0H58.991V-61.779H0Z"/>
    </clipPath>
  </defs>
  <g id="Group_39" data-name="Group 39" transform="translate(0 61.779)">
    <g id="Group_31" data-name="Group 31" clip-path="url(#clip-path)">
      <g id="Group_30" data-name="Group 30" transform="translate(18.962 -44.114)">
        <path id="Path_43" data-name="Path 43" d="M0,0A12.641,12.641,0,0,0,0,25.282,12.642,12.642,0,0,0,12.641,12.641,12.642,12.642,0,0,0,0,0M9.355,7.9H4.8a20.436,20.436,0,0,0-1.811-5.31A10.514,10.514,0,0,1,9.355,7.9M3.16,12.641a22.377,22.377,0,0,1-.167,2.634H-2.993a22.377,22.377,0,0,1-.167-2.634,22.581,22.581,0,0,1,.165-2.634h5.99a22.581,22.581,0,0,1,.165,2.634M-.307,2.138c.1,0,.2-.031.307-.031s.2.028.31.031A17.52,17.52,0,0,1,2.644,7.9H-2.643A17.463,17.463,0,0,1-.307,2.138m-2.681.453A20.5,20.5,0,0,0-4.8,7.9H-9.355a10.52,10.52,0,0,1,6.367-5.31m-7.546,10.05a10.418,10.418,0,0,1,.374-2.634h5.042a24.873,24.873,0,0,0-.149,2.634,24.57,24.57,0,0,0,.152,2.634H-10.16a10.418,10.418,0,0,1-.374-2.634m1.179,4.74h4.562a20.913,20.913,0,0,0,1.8,5.309,10.516,10.516,0,0,1-6.364-5.309M.306,23.144c-.1,0-.2.031-.306.031s-.2-.028-.307-.031a17.635,17.635,0,0,1-2.334-5.763H2.641A17.593,17.593,0,0,1,.306,23.144m2.686-.454a20.8,20.8,0,0,0,1.8-5.309H9.355A10.517,10.517,0,0,1,2.992,22.69m2.123-7.415a24.57,24.57,0,0,0,.152-2.634,24.873,24.873,0,0,0-.149-2.634H10.16a10.424,10.424,0,0,1,.374,2.634,10.418,10.418,0,0,1-.374,2.634Z"/>
      </g>
    </g>
    <path id="Path_45" data-name="Path 45" d="M8.427-12.512H29.5V-10.4H8.427Z"/>
    <g id="Group_32" data-name="Group 32" transform="translate(43.072 -23.618)">
      <path id="Path_46" data-name="Path 46" d="M0,0,1.091-4.07l2.035.545L2.035.545Z"/>
    </g>
    <g id="Group_33" data-name="Group 33" transform="translate(38.164 -5.307)">
      <path id="Path_47" data-name="Path 47" d="M0,0,3.817-14.245l2.035.546L2.035.545Z"/>
    </g>
    <g id="Group_35" data-name="Group 35" clip-path="url(#clip-path)">
      <g id="Group_34" data-name="Group 34" transform="translate(55.867 -55.091)">
        <path id="Path_48" data-name="Path 48" d="M0,0-24.42-6.544a4.259,4.259,0,0,0-1.093-.144,4.217,4.217,0,0,0-4.068,3.124l-2.2,8.22H-53.76a2.107,2.107,0,0,0-2.107,2.107V48.9a2.107,2.107,0,0,0,2.107,2.107h24.334l14.7,3.94a4.219,4.219,0,0,0,1.094.145,4.216,4.216,0,0,0,4.067-3.125L2.98,5.161A4.214,4.214,0,0,0,0,0M-53.76,48.9V6.763h31.6A2.109,2.109,0,0,1-20.051,8.87V46.793A2.109,2.109,0,0,1-22.158,48.9ZM.945,4.615-11.6,51.421a2.109,2.109,0,0,1-2.033,1.563,2.125,2.125,0,0,1-.547-.073l-7.347-1.969a4.2,4.2,0,0,0,3.58-4.149V30.09l1.079.29,1.091-4.071-2.035-.545-.135.5V9.525l2.15.576,2.491,8.146,1.745.468-.165-7.523,3.081.826,1.354,2.388,1.163.311-.2-3.325,1.836-2.78L-5.652,8.3-8.018,9.692-11.1,8.866l3.9-6.432L-8.94,1.967l-6.231,5.809-3.286-.881a4.2,4.2,0,0,0-3.7-2.239H-29.6l2.057-7.674a2.11,2.11,0,0,1,2.033-1.563,2.082,2.082,0,0,1,.547.073L-.545,2.035a2.1,2.1,0,0,1,1.279.982,2.092,2.092,0,0,1,.211,1.6"/>
      </g>
    </g>
    <g id="Group_36" data-name="Group 36" transform="translate(43.075 -31.22)">
      <path id="Path_50" data-name="Path 50" d="M0,0,.539-2.037l2,.53L2,.53Z"/>
    </g>
    <g id="Group_37" data-name="Group 37" transform="translate(47.074 -30.158)">
      <path id="Path_51" data-name="Path 51" d="M0,0,.539-2.037l2,.53L2,.53Z"/>
    </g>
    <g id="Group_38" data-name="Group 38" transform="translate(39.077 -32.279)">
      <path id="Path_52" data-name="Path 52" d="M0,0,.539-2.037l2,.53L2,.53Z"/>
    </g>
  </g>
</svg>
